<?xml version="1.0" encoding="iso-8859-1"?>
<!-- Generator: Adobe Illustrator 19.0.0, SVG Export Plug-In . SVG Version: 6.00 Build 0)  -->
<svg version="1.1" id="Layer_1" xmlns="http://www.w3.org/2000/svg" xmlns:xlink="http://www.w3.org/1999/xlink" x="0px" y="0px"
	 viewBox="0 0 512 512" style="enable-background:new 0 0 512 512;" xml:space="preserve">
<path style="fill:#EB86BF;" d="M512,256.006C512,397.402,397.394,512.004,256.004,512C114.606,512.004,0,397.402,0,256.006
	C-0.007,114.61,114.606,0,256.004,0C397.394,0,512,114.614,512,256.006z"/>
<path style="fill:#D670AD;" d="M512,256.005c0-24.368-3.477-47.91-9.836-70.239c-0.425-0.558-90.354-90.505-90.94-90.94
	c-1.361-1.83-3.436-3.093-5.891-3.093h-201.6c-4.123,0-7.467,3.343-7.467,7.467v19.519c-0.395-0.487-15.924-15.99-16.51-16.426
	c-1.361-1.829-3.436-3.093-5.89-3.093h-67.2c-4.124,0-7.467,3.343-7.467,7.467v134.4c0,2.455,1.264,4.53,3.093,5.891
	c0.435,0.586,15.939,16.114,16.426,16.509H98.876c-6.271,0-14.609,1.473-14.609,14.208V412.8c0,2.454,1.263,4.529,3.092,5.889
	c0.436,0.588,75.244,75.394,75.829,75.829c0.03,0.039,0.074,0.064,0.103,0.103C192.048,505.801,223.293,512,256.004,512
	C397.394,512.004,512,397.401,512,256.005z"/>
<g>
	<path style="fill:#F4F6F9;" d="M414.594,263.467H98.876c-6.271,0-14.609,1.473-14.609,14.208V412.8
		c0,4.124,3.343,7.467,7.467,7.467c4.124,0,7.467-3.343,7.467-7.467v-82.133h313.6V412.8c0,4.124,3.343,7.467,7.467,7.467
		c4.124,0,7.467-3.343,7.467-7.467V277.675C427.733,270.802,426.72,263.467,414.594,263.467z M99.2,315.733V278.4h313.6v37.333H99.2
		z"/>
	<path style="fill:#F4F6F9;" d="M263.467,233.6c-4.124,0-7.467,3.343-7.467,7.467s3.343,7.467,7.467,7.467H345.6
		c4.124,0,7.467-3.343,7.467-7.467s-3.343-7.467-7.467-7.467H263.467z"/>
	<path style="fill:#F4F6F9;" d="M203.733,218.667h201.6c4.124,0,7.467-3.343,7.467-7.467v-112c0-4.124-3.343-7.467-7.467-7.467
		h-201.6c-4.124,0-7.467,3.343-7.467,7.467v112C196.267,215.324,199.61,218.667,203.733,218.667z M211.2,106.667h186.667v97.067
		H211.2V106.667z"/>
	<path style="fill:#F4F6F9;" d="M106.667,248.533h67.2c4.124,0,7.467-3.343,7.467-7.467v-134.4c0-4.124-3.343-7.467-7.467-7.467
		h-67.2c-4.124,0-7.467,3.343-7.467,7.467v134.4C99.2,245.19,102.543,248.533,106.667,248.533z M114.133,114.133H166.4V233.6
		h-52.267V114.133z"/>
</g>
<g>
</g>
<g>
</g>
<g>
</g>
<g>
</g>
<g>
</g>
<g>
</g>
<g>
</g>
<g>
</g>
<g>
</g>
<g>
</g>
<g>
</g>
<g>
</g>
<g>
</g>
<g>
</g>
<g>
</g>
</svg>
